<svg id="Warstwa_1" data-name="Warstwa 1" xmlns="http://www.w3.org/2000/svg" viewBox="0 0 454.94 210"><defs><style>.cls-1{fill:#0041d2;}</style></defs><path class="cls-1" d="M190.88,45V67.37c0,9.41-5.36,16.57-17.22,16.57-11.71,0-17-6.56-17-15.8V45h8.48V66.77c0,5.79,2.35,10,8.59,10s8.63-4.16,8.63-10.06V45Z"/><path class="cls-1" d="M228.39,61.63V83h-8.15V65.13c0-4.21-2.13-6-5.63-6a9.33,9.33,0,0,0-8.26,5.25V83h-8.2V52.11h8.2v4.6a13.54,13.54,0,0,1,10.83-5.25C224,51.46,228.39,55.89,228.39,61.63Z"/><path class="cls-1" d="M235,42.87c0-2.68,2-4.43,4.86-4.43a4.44,4.44,0,1,1,0,8.86C237,47.3,235,45.55,235,42.87Zm.71,9.24h8.2V83h-8.2Z"/><path class="cls-1" d="M281.43,52.11,269.4,83h-9.84l-11.48-30.9h8.69l8,22.7,8.3-22.7Z"/><path class="cls-1" d="M313.21,69.39H290.52c.27,4.6,3.55,7.55,8.91,7.55a10,10,0,0,0,8.15-3.88l4.81,5.41c-4,4-8.47,5.36-13.67,5.36-9.9,0-16.29-6.45-16.29-16.3,0-8.91,6-16.18,15.58-16.18C307.74,51.35,313.76,58.29,313.21,69.39Zm-22.53-5.68H304.9c-.77-3.89-3.44-5.36-6.89-5.36C294.4,58.35,291.56,60.1,290.68,63.71Z"/><path class="cls-1" d="M337.17,51.29l-.11,8.81c-4.65-.39-7.65,1.25-9.51,4.43V83h-8.2V52.11h8.2v5.31C330,53.59,333.51,51.35,337.17,51.29Z"/><path class="cls-1" d="M339.86,77.81l5.79-5a8.12,8.12,0,0,0,7.71,4.43c3.23,0,5.36-1.15,5.36-3.11,0-2.14-2.35-2.57-3.55-2.85l-4.7-1c-4.87-1.09-9.08-3.55-9.08-9.24,0-6,4.7-9.62,12.36-9.62a17,17,0,0,1,11.59,4.32l-4.43,6A9.71,9.71,0,0,0,353.26,58c-2.58,0-4.05.93-4.05,2.57s1.75,2.3,3.39,2.68l4.81,1.15c3.28.76,9.3,2.62,9.3,9.07,0,6.07-4.87,10.28-13.24,10.28C348.33,83.77,343.8,82.68,339.86,77.81Z"/><path class="cls-1" d="M371.47,42.87c0-2.68,2-4.43,4.87-4.43a4.44,4.44,0,1,1,0,8.86C373.49,47.3,371.47,45.55,371.47,42.87Zm.71,9.24h8.2V83h-8.2Z"/><path class="cls-1" d="M171.14,154.17c-9.73,0-16.68-6.89-16.68-16.3s6.95-16.29,16.68-16.29,16.73,6.94,16.73,16.29S181,154.17,171.14,154.17Zm8.26-16.3c0-5.19-3-8.85-8.15-8.85s-8.31,3.77-8.31,8.91,3.06,8.8,8.31,8.8S179.4,143.07,179.4,137.87Z"/><path class="cls-1" d="M203.74,121v1.42h10.17v6.34H203.74v24.55h-8.2V128.74h-5.47V122.4h5.47v-2.24c0-7.11,4.1-11.49,12.36-11.49a18.1,18.1,0,0,1,9.57,2.52l-2.63,6.73a10.73,10.73,0,0,0-6.18-2C205.06,115.89,203.74,117.92,203.74,121Z"/><path class="cls-1" d="M251.77,154.39c-11.65,0-19.63-8.31-19.63-20s8.09-20.17,19.52-20.17c7.11,0,13.18,3.39,16.35,8.53l-6.45,4.86a10.6,10.6,0,0,0-9.68-6.12c-6.4,0-10.83,4.87-10.83,13,0,7.76,4.32,12.69,11,12.69,5.36,0,9-3.23,9.52-7.66h-9.95v-6.84H270v4.27C270,147.55,262.49,154.39,251.77,154.39Z"/><path class="cls-1" d="M307.94,110.26v43h-6.78l-.5-3.66c-2.13,2.68-6.06,4.54-10.55,4.54-8,0-15.15-6.07-15.15-16.19,0-9.73,6.79-16.4,15.26-16.4a13.53,13.53,0,0,1,9.57,3.66v-15Zm-8.15,27.61c0-5.3-3.06-8.85-8.09-8.85-5.2,0-8.2,3.82-8.2,8.91s2.95,8.8,8.14,8.8S299.79,143.18,299.79,137.87Z"/><path class="cls-1" d="M340.93,131.31v22h-6.39l-.61-3.33a12.16,12.16,0,0,1-9.29,4.1c-6,0-9.84-3.61-9.84-8.91,0-7.49,7.49-9.68,18-11.71v-.38c0-3.11-2-4.1-4.82-4.1-3.5,0-6.61,1.64-9.07,3.34l-2.79-6.84a22.18,22.18,0,0,1,12.46-3.83C336.12,121.63,340.93,125.13,340.93,131.31Zm-8.14,13V139c-6.24,1.31-9.68,2.46-9.68,5.42,0,1.85,1.47,2.89,3.72,2.89A7.23,7.23,0,0,0,332.79,144.27Z"/><path class="cls-1" d="M383.21,148.1l5.8-5a8.12,8.12,0,0,0,7.71,4.43c3.22,0,5.35-1.15,5.35-3.12,0-2.13-2.35-2.57-3.55-2.84l-4.7-1c-4.87-1.09-9.08-3.56-9.08-9.24,0-6,4.7-9.63,12.36-9.63A17,17,0,0,1,408.69,126l-4.43,6a9.73,9.73,0,0,0-7.65-3.61c-2.57,0-4.05.93-4.05,2.57s1.75,2.3,3.39,2.68l4.81,1.15c3.28.77,9.3,2.63,9.3,9.08,0,6.07-4.87,10.28-13.23,10.28C391.69,154.06,387.15,153,383.21,148.1Z"/><path class="cls-1" d="M429,141.32l-5.19,5.25v6.72h-8.21V109.55h8.21v26.57l13.83-13.72H447.8l-13,13.07,13.5,17.82H438.12Z"/><path class="cls-1" d="M409.23,81.42a18,18,0,0,1-9,2.35c-6.24,0-10.12-3.17-10.12-10.28v-15H385.2V52.11h4.89v-7h8.15v7h8.54v6.35h-8.54V72.29c0,2.9,1.64,3.83,3.83,3.83a9.11,9.11,0,0,0,5-1.64Z"/><path class="cls-1" d="M443,52.11V81.68c0,9.81-7.26,14.49-17.49,14.49a23.11,23.11,0,0,1-13.37-3.86l3.84-6.59a16.22,16.22,0,0,0,9.48,3.11c5.92,0,9.41-2.39,9.41-8v-1a9.52,9.52,0,0,1-8,3.81c-7.94,0-14.07-6-14.07-15.31V52.11h8.49V68.34c0,4.61,2.64,7.84,7,7.84s6.65-3.26,6.65-7.89V52.11Z"/><path class="cls-1" d="M367.23,121.73A13.51,13.51,0,0,0,356.4,127v-4.6h-8.2v30.9h8.2V134.65a9.35,9.35,0,0,1,8.26-5.26c3.5,0,5.63,1.81,5.63,6v17.88h8.15V131.91C378.44,126.16,374.06,121.73,367.23,121.73Zm-1-13.4L361.11,118h6.05l7.87-9.65Z"/><polygon class="cls-1" points="92.31 4.02 92.31 15.73 77.67 15.73 77.67 4.02 54.26 4.02 54.26 15.73 39.62 15.73 39.62 4.02 16.21 4.02 16.21 15.73 24.99 15.73 24.99 27.44 106.94 27.44 106.94 15.73 115.72 15.73 115.72 4.02 92.31 4.02"/><rect class="cls-1" x="77.68" y="71.34" width="11.71" height="11.71"/><path class="cls-1" d="M4.5,42.07V144.51a61.47,61.47,0,1,0,122.93,0V42.07Zm96.59,117.08H89.38v8.78h0v8.78A52.12,52.12,0,0,1,66,182.56,29.27,29.27,0,0,1,66,124v11.71a17.57,17.57,0,1,0,0,35.13,37.2,37.2,0,0,0,11.7-1.93v-1h0v-8.78H66V147.44h11.7v11.71H89.38V147.44H77.67V135.73H89.38v11.71h11.71Zm0-76.1H89.38V97.68h0v8.78A53.22,53.22,0,0,1,63,112.32,23.42,23.42,0,0,1,39.63,88.9c0-3.93,0-24.83,0-29.27h11.7V88.9A11.71,11.71,0,0,0,63,100.61a40.8,40.8,0,0,0,14.63-1.93c0-.33,0-15.63,0-15.63H66V71.34H77.68V59.63h11.7V71.34h11.71Z"/></svg>